<svg id="visual" viewBox="0 0 960 540" width="960" height="540" xmlns="http://www.w3.org/2000/svg" xmlns:xlink="http://www.w3.org/1999/xlink" version="1.1"><rect x="0" y="0" width="960" height="540" fill="#22223b"></rect><path d="M0 158L22.8 168.8C45.7 179.7 91.3 201.3 137 195.5C182.7 189.7 228.3 156.3 274 150.7C319.7 145 365.3 167 411.2 167.7C457 168.3 503 147.7 548.8 144.7C594.7 141.7 640.3 156.3 686 168.8C731.7 181.3 777.3 191.7 823 190.8C868.7 190 914.3 178 937.2 172L960 166L960 541L937.2 541C914.3 541 868.7 541 823 541C777.3 541 731.7 541 686 541C640.3 541 594.7 541 548.8 541C503 541 457 541 411.2 541C365.3 541 319.7 541 274 541C228.3 541 182.7 541 137 541C91.3 541 45.7 541 22.8 541L0 541Z" fill="#22223b"></path><path d="M0 136L22.8 147.2C45.7 158.3 91.3 180.7 137 186.2C182.7 191.7 228.3 180.3 274 189.5C319.7 198.7 365.3 228.3 411.2 232.7C457 237 503 216 548.8 208.7C594.7 201.3 640.3 207.7 686 215.8C731.7 224 777.3 234 823 237.2C868.7 240.3 914.3 236.7 937.2 234.8L960 233L960 541L937.2 541C914.3 541 868.7 541 823 541C777.3 541 731.7 541 686 541C640.3 541 594.7 541 548.8 541C503 541 457 541 411.2 541C365.3 541 319.7 541 274 541C228.3 541 182.7 541 137 541C91.3 541 45.7 541 22.8 541L0 541Z" fill="#332c44"></path><path d="M0 229L22.8 218.3C45.7 207.7 91.3 186.3 137 192.3C182.7 198.3 228.3 231.7 274 230.7C319.7 229.7 365.3 194.3 411.2 190.8C457 187.3 503 215.7 548.8 218.8C594.7 222 640.3 200 686 198.2C731.7 196.3 777.3 214.7 823 221.8C868.7 229 914.3 225 937.2 223L960 221L960 541L937.2 541C914.3 541 868.7 541 823 541C777.3 541 731.7 541 686 541C640.3 541 594.7 541 548.8 541C503 541 457 541 411.2 541C365.3 541 319.7 541 274 541C228.3 541 182.7 541 137 541C91.3 541 45.7 541 22.8 541L0 541Z" fill="#44364e"></path><path d="M0 283L22.8 275.2C45.7 267.3 91.3 251.7 137 240C182.7 228.3 228.3 220.7 274 215C319.7 209.3 365.3 205.7 411.2 214.7C457 223.7 503 245.3 548.8 243C594.7 240.7 640.3 214.3 686 217C731.7 219.7 777.3 251.3 823 264.3C868.7 277.3 914.3 271.7 937.2 268.8L960 266L960 541L937.2 541C914.3 541 868.7 541 823 541C777.3 541 731.7 541 686 541C640.3 541 594.7 541 548.8 541C503 541 457 541 411.2 541C365.3 541 319.7 541 274 541C228.3 541 182.7 541 137 541C91.3 541 45.7 541 22.8 541L0 541Z" fill="#554157"></path><path d="M0 232L22.8 230.7C45.7 229.3 91.3 226.7 137 226.2C182.7 225.7 228.3 227.3 274 240C319.7 252.7 365.3 276.3 411.2 292.8C457 309.3 503 318.7 548.8 316C594.7 313.3 640.3 298.7 686 292.7C731.7 286.7 777.3 289.3 823 292.7C868.7 296 914.3 300 937.2 302L960 304L960 541L937.2 541C914.3 541 868.7 541 823 541C777.3 541 731.7 541 686 541C640.3 541 594.7 541 548.8 541C503 541 457 541 411.2 541C365.3 541 319.7 541 274 541C228.3 541 182.7 541 137 541C91.3 541 45.7 541 22.8 541L0 541Z" fill="#654d5f"></path><path d="M0 302L22.8 304.3C45.7 306.7 91.3 311.3 137 313.2C182.7 315 228.3 314 274 317.7C319.7 321.3 365.3 329.7 411.2 324.8C457 320 503 302 548.8 289.3C594.7 276.7 640.3 269.3 686 269.5C731.7 269.7 777.3 277.3 823 280.2C868.7 283 914.3 281 937.2 280L960 279L960 541L937.2 541C914.3 541 868.7 541 823 541C777.3 541 731.7 541 686 541C640.3 541 594.7 541 548.8 541C503 541 457 541 411.2 541C365.3 541 319.7 541 274 541C228.3 541 182.7 541 137 541C91.3 541 45.7 541 22.8 541L0 541Z" fill="#745968"></path><path d="M0 338L22.8 336.8C45.7 335.7 91.3 333.3 137 337C182.7 340.7 228.3 350.3 274 356.8C319.7 363.3 365.3 366.7 411.2 360.7C457 354.7 503 339.3 548.8 330.5C594.7 321.7 640.3 319.3 686 323C731.7 326.7 777.3 336.3 823 343.5C868.7 350.7 914.3 355.3 937.2 357.7L960 360L960 541L937.2 541C914.3 541 868.7 541 823 541C777.3 541 731.7 541 686 541C640.3 541 594.7 541 548.8 541C503 541 457 541 411.2 541C365.3 541 319.7 541 274 541C228.3 541 182.7 541 137 541C91.3 541 45.7 541 22.8 541L0 541Z" fill="#846572"></path><path d="M0 402L22.8 403.3C45.7 404.7 91.3 407.3 137 398C182.7 388.7 228.3 367.3 274 360C319.7 352.7 365.3 359.3 411.2 358.2C457 357 503 348 548.8 350.7C594.7 353.3 640.3 367.7 686 370.8C731.7 374 777.3 366 823 366.8C868.7 367.7 914.3 377.3 937.2 382.2L960 387L960 541L937.2 541C914.3 541 868.7 541 823 541C777.3 541 731.7 541 686 541C640.3 541 594.7 541 548.8 541C503 541 457 541 411.2 541C365.3 541 319.7 541 274 541C228.3 541 182.7 541 137 541C91.3 541 45.7 541 22.8 541L0 541Z" fill="#92737b"></path><path d="M0 388L22.8 394.7C45.7 401.3 91.3 414.7 137 412.7C182.7 410.7 228.3 393.3 274 383.7C319.7 374 365.3 372 411.2 379.2C457 386.3 503 402.7 548.8 410C594.7 417.3 640.3 415.7 686 407.8C731.7 400 777.3 386 823 382.2C868.7 378.3 914.3 384.7 937.2 387.8L960 391L960 541L937.2 541C914.3 541 868.7 541 823 541C777.3 541 731.7 541 686 541C640.3 541 594.7 541 548.8 541C503 541 457 541 411.2 541C365.3 541 319.7 541 274 541C228.3 541 182.7 541 137 541C91.3 541 45.7 541 22.8 541L0 541Z" fill="#a18185"></path><path d="M0 437L22.8 431.7C45.7 426.3 91.3 415.7 137 415.7C182.7 415.7 228.3 426.3 274 427C319.7 427.7 365.3 418.3 411.2 417.8C457 417.3 503 425.7 548.8 430.2C594.7 434.7 640.3 435.3 686 436.7C731.7 438 777.3 440 823 441.7C868.7 443.3 914.3 444.7 937.2 445.3L960 446L960 541L937.2 541C914.3 541 868.7 541 823 541C777.3 541 731.7 541 686 541C640.3 541 594.7 541 548.8 541C503 541 457 541 411.2 541C365.3 541 319.7 541 274 541C228.3 541 182.7 541 137 541C91.3 541 45.7 541 22.8 541L0 541Z" fill="#ae8f90"></path><path d="M0 477L22.8 471C45.7 465 91.3 453 137 450.8C182.7 448.7 228.3 456.3 274 460.3C319.7 464.3 365.3 464.7 411.2 465.5C457 466.3 503 467.7 548.8 466.2C594.7 464.7 640.3 460.3 686 461.5C731.7 462.7 777.3 469.3 823 473.2C868.7 477 914.3 478 937.2 478.5L960 479L960 541L937.2 541C914.3 541 868.7 541 823 541C777.3 541 731.7 541 686 541C640.3 541 594.7 541 548.8 541C503 541 457 541 411.2 541C365.3 541 319.7 541 274 541C228.3 541 182.7 541 137 541C91.3 541 45.7 541 22.8 541L0 541Z" fill="#bc9e9b"></path><path d="M0 507L22.8 502.8C45.7 498.7 91.3 490.3 137 491.8C182.7 493.3 228.3 504.7 274 509.2C319.7 513.7 365.3 511.3 411.2 507.2C457 503 503 497 548.8 492.5C594.7 488 640.3 485 686 483.2C731.7 481.3 777.3 480.7 823 485.3C868.7 490 914.3 500 937.2 505L960 510L960 541L937.2 541C914.3 541 868.7 541 823 541C777.3 541 731.7 541 686 541C640.3 541 594.7 541 548.8 541C503 541 457 541 411.2 541C365.3 541 319.7 541 274 541C228.3 541 182.7 541 137 541C91.3 541 45.7 541 22.8 541L0 541Z" fill="#c9ada7"></path></svg>