<?xml version="1.0" standalone="no"?>
<!DOCTYPE svg PUBLIC "-//W3C//DTD SVG 20010904//EN"
 "http://www.w3.org/TR/2001/REC-SVG-20010904/DTD/svg10.dtd">
<svg version="1.0" xmlns="http://www.w3.org/2000/svg"
 width="840.000000pt" height="859.000000pt" viewBox="0 0 840.000000 859.000000"
 preserveAspectRatio="xMidYMid meet">

<g transform="translate(0.000000,859.000000) scale(0.100000,-0.100000)"
fill="#f2e9e4" stroke="none">
<path d="M3856 8274 c-973 -88 -1889 -555 -2539 -1294 -241 -275 -426 -550
-587 -875 -144 -292 -232 -531 -305 -828 -94 -377 -129 -739 -114 -1162 47
-1310 755 -2539 1861 -3230 502 -313 1054 -503 1648 -567 153 -16 603 -16 760
0 1108 117 2085 687 2756 1609 231 317 435 722 563 1117 88 269 156 611 181
896 13 160 13 550 0 710 -70 821 -391 1601 -925 2247 -114 138 -359 383 -498
498 -794 657 -1794 971 -2801 879z m712 -219 c967 -98 1860 -587 2479 -1357
455 -566 728 -1223 820 -1973 22 -177 24 -643 5 -820 -88 -790 -380 -1483
-878 -2079 -124 -148 -371 -390 -519 -509 -143 -115 -386 -276 -551 -366 -239
-130 -540 -251 -625 -251 -63 0 -124 34 -154 84 l-25 43 0 582 c0 346 -4 621
-11 678 -20 186 -94 377 -185 481 -26 29 -45 54 -43 56 2 2 68 13 146 25 331
51 618 148 826 277 314 197 531 514 630 924 43 177 58 303 64 540 4 180 2 248
-11 338 -42 281 -148 518 -337 754 l-22 27 21 73 c37 127 46 199 46 358 0 178
-17 288 -69 456 l-35 112 -44 6 c-64 10 -226 -18 -341 -58 -180 -63 -321 -135
-526 -267 l-105 -69 -100 26 c-261 66 -517 97 -814 97 -308 1 -568 -30 -834
-97 l-100 -26 -105 69 c-285 185 -543 295 -750 321 -117 14 -157 6 -171 -34
-71 -194 -94 -330 -93 -546 1 -178 2 -191 59 -406 4 -14 -6 -34 -32 -65 -157
-188 -271 -441 -315 -700 -19 -110 -21 -150 -16 -359 9 -400 67 -664 205 -935
230 -451 675 -728 1317 -820 66 -9 126 -19 133 -21 9 -3 -2 -21 -33 -56 -79
-87 -141 -237 -179 -429 -5 -22 -18 -30 -99 -58 -273 -94 -523 -76 -713 53
-66 44 -179 164 -225 238 -81 130 -162 230 -233 289 -127 106 -278 165 -405
157 -179 -11 -174 -101 14 -228 170 -115 288 -277 400 -547 55 -131 116 -223
209 -310 217 -207 519 -281 906 -223 69 10 126 17 127 17 0 -1 3 -157 5 -347
l3 -345 -25 -43 c-37 -65 -80 -87 -165 -86 -59 0 -88 8 -185 46 -532 213 -946
488 -1330 884 -587 607 -941 1363 -1047 2234 -24 205 -24 649 1 855 90 752
360 1400 824 1980 189 236 530 554 768 716 306 209 623 367 954 476 215 71
509 134 736 157 177 19 575 19 752 1z"/>
</g>
</svg>
