<svg id="visual" viewBox="0 0 960 540" width="960" height="540"  xmlns="http://www.w3.org/2000/svg" preserveAspectRatio="none" xmlns:xlink="http://www.w3.org/1999/xlink" version="1.1"><path d="M765 0L765.2 9C765.3 18 765.7 36 758 54C750.3 72 734.7 90 711.7 108C688.7 126 658.3 144 646.3 162C634.3 180 640.7 198 662.8 216C685 234 723 252 730.5 270C738 288 715 306 690.2 324C665.3 342 638.7 360 642.2 378C645.7 396 679.3 414 688.2 432C697 450 681 468 686.3 486C691.7 504 718.3 522 731.7 531L745 540L0 540L0 531C0 522 0 504 0 486C0 468 0 450 0 432C0 414 0 396 0 378C0 360 0 342 0 324C0 306 0 288 0 270C0 252 0 234 0 216C0 198 0 180 0 162C0 144 0 126 0 108C0 90 0 72 0 54C0 36 0 18 0 9L0 0Z" fill="#f2e9e4"></path><path d="M616 0L609.3 9C602.7 18 589.3 36 585.7 54C582 72 588 90 587.5 108C587 126 580 144 594.8 162C609.7 180 646.3 198 648 216C649.7 234 616.3 252 608.5 270C600.7 288 618.3 306 638.7 324C659 342 682 360 670.5 378C659 396 613 414 593 432C573 450 579 468 582.7 486C586.3 504 587.7 522 588.3 531L589 540L0 540L0 531C0 522 0 504 0 486C0 468 0 450 0 432C0 414 0 396 0 378C0 360 0 342 0 324C0 306 0 288 0 270C0 252 0 234 0 216C0 198 0 180 0 162C0 144 0 126 0 108C0 90 0 72 0 54C0 36 0 18 0 9L0 0Z" fill="#e1d4cf"></path><path d="M564 0L562.8 9C561.7 18 559.3 36 553.7 54C548 72 539 90 540.7 108C542.3 126 554.7 144 554.8 162C555 180 543 198 544.8 216C546.7 234 562.3 252 577.7 270C593 288 608 306 603.2 324C598.3 342 573.7 360 570.7 378C567.7 396 586.3 414 597.5 432C608.7 450 612.3 468 595.5 486C578.7 504 541.3 522 522.7 531L504 540L0 540L0 531C0 522 0 504 0 486C0 468 0 450 0 432C0 414 0 396 0 378C0 360 0 342 0 324C0 306 0 288 0 270C0 252 0 234 0 216C0 198 0 180 0 162C0 144 0 126 0 108C0 90 0 72 0 54C0 36 0 18 0 9L0 0Z" fill="#d0bfbc"></path><path d="M501 0L502 9C503 18 505 36 517 54C529 72 551 90 545.8 108C540.7 126 508.3 144 498.2 162C488 180 500 198 510.8 216C521.7 234 531.3 252 526.8 270C522.3 288 503.7 306 495.8 324C488 342 491 360 498.7 378C506.3 396 518.7 414 524.7 432C530.7 450 530.3 468 518.7 486C507 504 484 522 472.5 531L461 540L0 540L0 531C0 522 0 504 0 486C0 468 0 450 0 432C0 414 0 396 0 378C0 360 0 342 0 324C0 306 0 288 0 270C0 252 0 234 0 216C0 198 0 180 0 162C0 144 0 126 0 108C0 90 0 72 0 54C0 36 0 18 0 9L0 0Z" fill="#bfabaa"></path><path d="M404 0L414.8 9C425.7 18 447.3 36 455.5 54C463.7 72 458.3 90 459.5 108C460.7 126 468.3 144 466.2 162C464 180 452 198 457.5 216C463 234 486 252 489.2 270C492.3 288 475.7 306 461.5 324C447.3 342 435.7 360 442.5 378C449.3 396 474.7 414 473.8 432C473 450 446 468 448.2 486C450.3 504 481.7 522 497.3 531L513 540L0 540L0 531C0 522 0 504 0 486C0 468 0 450 0 432C0 414 0 396 0 378C0 360 0 342 0 324C0 306 0 288 0 270C0 252 0 234 0 216C0 198 0 180 0 162C0 144 0 126 0 108C0 90 0 72 0 54C0 36 0 18 0 9L0 0Z" fill="#ae9799"></path><path d="M404 0L405.2 9C406.3 18 408.7 36 416.7 54C424.7 72 438.3 90 437.2 108C436 126 420 144 406.5 162C393 180 382 198 374 216C366 234 361 252 366.5 270C372 288 388 306 392 324C396 342 388 360 397 378C406 396 432 414 438.2 432C444.3 450 430.7 468 415 486C399.3 504 381.7 522 372.8 531L364 540L0 540L0 531C0 522 0 504 0 486C0 468 0 450 0 432C0 414 0 396 0 378C0 360 0 342 0 324C0 306 0 288 0 270C0 252 0 234 0 216C0 198 0 180 0 162C0 144 0 126 0 108C0 90 0 72 0 54C0 36 0 18 0 9L0 0Z" fill="#9c8389"></path><path d="M349 0L348.2 9C347.3 18 345.7 36 346.3 54C347 72 350 90 347.2 108C344.3 126 335.7 144 332.8 162C330 180 333 198 343.8 216C354.7 234 373.3 252 382.7 270C392 288 392 306 382.7 324C373.3 342 354.7 360 342.7 378C330.7 396 325.3 414 323.2 432C321 450 322 468 321.5 486C321 504 319 522 318 531L317 540L0 540L0 531C0 522 0 504 0 486C0 468 0 450 0 432C0 414 0 396 0 378C0 360 0 342 0 324C0 306 0 288 0 270C0 252 0 234 0 216C0 198 0 180 0 162C0 144 0 126 0 108C0 90 0 72 0 54C0 36 0 18 0 9L0 0Z" fill="#8a717b"></path><path d="M270 0L277 9C284 18 298 36 303.8 54C309.7 72 307.3 90 298.7 108C290 126 275 144 267.5 162C260 180 260 198 269.2 216C278.3 234 296.7 252 299.2 270C301.7 288 288.3 306 288.8 324C289.3 342 303.7 360 302.8 378C302 396 286 414 280.3 432C274.7 450 279.3 468 290.7 486C302 504 320 522 329 531L338 540L0 540L0 531C0 522 0 504 0 486C0 468 0 450 0 432C0 414 0 396 0 378C0 360 0 342 0 324C0 306 0 288 0 270C0 252 0 234 0 216C0 198 0 180 0 162C0 144 0 126 0 108C0 90 0 72 0 54C0 36 0 18 0 9L0 0Z" fill="#765f6d"></path><path d="M258 0L255.3 9C252.7 18 247.3 36 241.5 54C235.7 72 229.3 90 226.5 108C223.7 126 224.3 144 221.8 162C219.3 180 213.7 198 217 216C220.3 234 232.7 252 240.8 270C249 288 253 306 255.2 324C257.3 342 257.7 360 252 378C246.3 396 234.7 414 229.8 432C225 450 227 468 227.7 486C228.3 504 227.7 522 227.3 531L227 540L0 540L0 531C0 522 0 504 0 486C0 468 0 450 0 432C0 414 0 396 0 378C0 360 0 342 0 324C0 306 0 288 0 270C0 252 0 234 0 216C0 198 0 180 0 162C0 144 0 126 0 108C0 90 0 72 0 54C0 36 0 18 0 9L0 0Z" fill="#624e60"></path><path d="M167 0L169 9C171 18 175 36 172.8 54C170.7 72 162.3 90 161.3 108C160.3 126 166.7 144 176.3 162C186 180 199 198 196.3 216C193.7 234 175.3 252 169.2 270C163 288 169 306 177.7 324C186.3 342 197.7 360 197.5 378C197.3 396 185.7 414 176.5 432C167.3 450 160.7 468 159.5 486C158.3 504 162.7 522 164.8 531L167 540L0 540L0 531C0 522 0 504 0 486C0 468 0 450 0 432C0 414 0 396 0 378C0 360 0 342 0 324C0 306 0 288 0 270C0 252 0 234 0 216C0 198 0 180 0 162C0 144 0 126 0 108C0 90 0 72 0 54C0 36 0 18 0 9L0 0Z" fill="#4e3e54"></path><path d="M139 0L141 9C143 18 147 36 145.2 54C143.3 72 135.7 90 134.3 108C133 126 138 144 140.7 162C143.3 180 143.7 198 141 216C138.3 234 132.7 252 132.7 270C132.7 288 138.3 306 140.5 324C142.7 342 141.3 360 138.8 378C136.3 396 132.7 414 133 432C133.3 450 137.7 468 139.8 486C142 504 142 522 142 531L142 540L0 540L0 531C0 522 0 504 0 486C0 468 0 450 0 432C0 414 0 396 0 378C0 360 0 342 0 324C0 306 0 288 0 270C0 252 0 234 0 216C0 198 0 180 0 162C0 144 0 126 0 108C0 90 0 72 0 54C0 36 0 18 0 9L0 0Z" fill="#383047"></path><path d="M58 0L60.8 9C63.7 18 69.3 36 68.5 54C67.7 72 60.3 90 60.8 108C61.3 126 69.7 144 73 162C76.3 180 74.7 198 72.7 216C70.7 234 68.3 252 71 270C73.7 288 81.3 306 79.7 324C78 342 67 360 63.7 378C60.3 396 64.7 414 68.7 432C72.7 450 76.3 468 76.7 486C77 504 74 522 72.5 531L71 540L0 540L0 531C0 522 0 504 0 486C0 468 0 450 0 432C0 414 0 396 0 378C0 360 0 342 0 324C0 306 0 288 0 270C0 252 0 234 0 216C0 198 0 180 0 162C0 144 0 126 0 108C0 90 0 72 0 54C0 36 0 18 0 9L0 0Z" fill="#22223b"></path></svg>