<svg id="visual" viewBox="0 0 960 540" width="960" height="540" preserveAspectRatio="none" xmlns="http://www.w3.org/2000/svg" xmlns:xlink="http://www.w3.org/1999/xlink" version="1.1">
<rect x="0" y="0" width="960" height="540" fill="transparent">
</rect>
<path d="M0 429L16 429.2C32 429.3 64 429.7 96 425.3C128 421 160 412 192 399C224 386 256 369 288 362.2C320 355.3 352 358.7 384 371C416 383.3 448 404.7 480 409C512 413.3 544 400.7 576 386.8C608 373 640 358 672 360C704 362 736 381 768 385.8C800 390.7 832 381.3 864 384.3C896 387.3 928 402.7 944 410.3L960 418L960 0L944 0C928 0 896 0 864 0C832 0 800 0 768 0C736 0 704 0 672 0C640 0 608 0 576 0C544 0 512 0 480 0C448 0 416 0 384 0C352 0 320 0 288 0C256 0 224 0 192 0C160 0 128 0 96 0C64 0 32 0 16 0L0 0Z" fill="#f2e9e4">
</path>
<path d="M0 345L16 341.2C32 337.3 64 329.7 96 327.7C128 325.7 160 329.3 192 329.2C224 329 256 325 288 333.2C320 341.3 352 361.7 384 362.5C416 363.3 448 344.7 480 340.3C512 336 544 346 576 357.5C608 369 640 382 672 375.5C704 369 736 343 768 331.7C800 320.3 832 323.7 864 325.8C896 328 928 329 944 329.5L960 330L960 0L944 0C928 0 896 0 864 0C832 0 800 0 768 0C736 0 704 0 672 0C640 0 608 0 576 0C544 0 512 0 480 0C448 0 416 0 384 0C352 0 320 0 288 0C256 0 224 0 192 0C160 0 128 0 96 0C64 0 32 0 16 0L0 0Z" fill="#e1d4cf">
</path>
<path d="M0 316L16 315.3C32 314.7 64 313.3 96 310.2C128 307 160 302 192 302.8C224 303.7 256 310.3 288 310.3C320 310.3 352 303.7 384 304.8C416 306 448 315 480 323.7C512 332.3 544 340.7 576 337.8C608 335 640 321 672 319.3C704 317.7 736 328.3 768 334.7C800 341 832 343 864 333.5C896 324 928 303 944 292.5L960 282L960 0L944 0C928 0 896 0 864 0C832 0 800 0 768 0C736 0 704 0 672 0C640 0 608 0 576 0C544 0 512 0 480 0C448 0 416 0 384 0C352 0 320 0 288 0C256 0 224 0 192 0C160 0 128 0 96 0C64 0 32 0 16 0L0 0Z" fill="#d0bfbc">
</path>
<path d="M0 280L16 280.5C32 281 64 282 96 288.8C128 295.7 160 308.3 192 305.5C224 302.7 256 284.3 288 278.7C320 273 352 280 384 286.2C416 292.3 448 297.7 480 295.2C512 292.7 544 282.3 576 277.8C608 273.3 640 274.7 672 278.8C704 283 736 290 768 293.3C800 296.7 832 296.3 864 289.8C896 283.3 928 270.7 944 264.3L960 258L960 0L944 0C928 0 896 0 864 0C832 0 800 0 768 0C736 0 704 0 672 0C640 0 608 0 576 0C544 0 512 0 480 0C448 0 416 0 384 0C352 0 320 0 288 0C256 0 224 0 192 0C160 0 128 0 96 0C64 0 32 0 16 0L0 0Z" fill="#bfabaa">
</path>
<path d="M0 226L16 232C32 238 64 250 96 254.5C128 259 160 256 192 256.7C224 257.3 256 261.7 288 260.5C320 259.3 352 252.7 384 255.7C416 258.7 448 271.3 480 273.2C512 275 544 266 576 258.2C608 250.3 640 243.7 672 247.5C704 251.3 736 265.7 768 265.2C800 264.7 832 249.3 864 250.5C896 251.7 928 269.3 944 278.2L960 287L960 0L944 0C928 0 896 0 864 0C832 0 800 0 768 0C736 0 704 0 672 0C640 0 608 0 576 0C544 0 512 0 480 0C448 0 416 0 384 0C352 0 320 0 288 0C256 0 224 0 192 0C160 0 128 0 96 0C64 0 32 0 16 0L0 0Z" fill="#ae9799">
</path>
<path d="M0 226L16 226.7C32 227.3 64 228.7 96 233.2C128 237.7 160 245.3 192 244.7C224 244 256 235 288 227.3C320 219.7 352 213.3 384 208.7C416 204 448 201 480 204.2C512 207.3 544 216.7 576 219C608 221.3 640 216.7 672 221.7C704 226.7 736 241.3 768 244.8C800 248.3 832 240.7 864 231.8C896 223 928 213 944 208L960 203L960 0L944 0C928 0 896 0 864 0C832 0 800 0 768 0C736 0 704 0 672 0C640 0 608 0 576 0C544 0 512 0 480 0C448 0 416 0 384 0C352 0 320 0 288 0C256 0 224 0 192 0C160 0 128 0 96 0C64 0 32 0 16 0L0 0Z" fill="#9c8389">
</path>
<path d="M0 195L16 194.5C32 194 64 193 96 193.3C128 193.7 160 195.3 192 193.8C224 192.3 256 187.7 288 186C320 184.3 352 185.7 384 191.7C416 197.7 448 208.3 480 213.7C512 219 544 219 576 213.7C608 208.3 640 197.7 672 191C704 184.3 736 181.7 768 180.5C800 179.3 832 179.7 864 179.3C896 179 928 178 944 177.5L960 177L960 0L944 0C928 0 896 0 864 0C832 0 800 0 768 0C736 0 704 0 672 0C640 0 608 0 576 0C544 0 512 0 480 0C448 0 416 0 384 0C352 0 320 0 288 0C256 0 224 0 192 0C160 0 128 0 96 0C64 0 32 0 16 0L0 0Z" fill="#8a717b">
</path>
<path d="M0 150L16 154C32 158 64 166 96 169.3C128 172.7 160 171.3 192 166.5C224 161.7 256 153.3 288 149.2C320 145 352 145 384 150.2C416 155.3 448 165.7 480 167C512 168.3 544 160.7 576 160.8C608 161 640 169 672 168.5C704 168 736 159 768 155.8C800 152.7 832 155.3 864 161.8C896 168.3 928 178.7 944 183.8L960 189L960 0L944 0C928 0 896 0 864 0C832 0 800 0 768 0C736 0 704 0 672 0C640 0 608 0 576 0C544 0 512 0 480 0C448 0 416 0 384 0C352 0 320 0 288 0C256 0 224 0 192 0C160 0 128 0 96 0C64 0 32 0 16 0L0 0Z" fill="#765f6d">
</path>
<path d="M0 144L16 142.3C32 140.7 64 137.3 96 134C128 130.7 160 127.3 192 125.8C224 124.3 256 124.7 288 123.2C320 121.7 352 118.3 384 120.2C416 122 448 129 480 133.7C512 138.3 544 140.7 576 141.8C608 143 640 143 672 139.8C704 136.7 736 130.3 768 127.7C800 125 832 126 864 126.3C896 126.7 928 126.3 944 126.2L960 126L960 0L944 0C928 0 896 0 864 0C832 0 800 0 768 0C736 0 704 0 672 0C640 0 608 0 576 0C544 0 512 0 480 0C448 0 416 0 384 0C352 0 320 0 288 0C256 0 224 0 192 0C160 0 128 0 96 0C64 0 32 0 16 0L0 0Z" fill="#624e60">
</path>
<path d="M0 92L16 93.2C32 94.3 64 96.7 96 95.5C128 94.3 160 89.7 192 89.2C224 88.7 256 92.3 288 97.8C320 103.3 352 110.7 384 109.2C416 107.7 448 97.3 480 93.8C512 90.3 544 93.7 576 98.5C608 103.3 640 109.7 672 109.5C704 109.3 736 102.7 768 97.5C800 92.3 832 88.7 864 88C896 87.3 928 89.7 944 90.8L960 92L960 0L944 0C928 0 896 0 864 0C832 0 800 0 768 0C736 0 704 0 672 0C640 0 608 0 576 0C544 0 512 0 480 0C448 0 416 0 384 0C352 0 320 0 288 0C256 0 224 0 192 0C160 0 128 0 96 0C64 0 32 0 16 0L0 0Z" fill="#4e3e54">
</path>
<path d="M0 77L16 78C32 79 64 81 96 79.8C128 78.7 160 74.3 192 73.7C224 73 256 76 288 77.7C320 79.3 352 79.7 384 78.2C416 76.7 448 73.3 480 73.2C512 73 544 76 576 77.2C608 78.3 640 77.7 672 76.3C704 75 736 73 768 73.2C800 73.3 832 75.7 864 77C896 78.3 928 78.7 944 78.8L960 79L960 0L944 0C928 0 896 0 864 0C832 0 800 0 768 0C736 0 704 0 672 0C640 0 608 0 576 0C544 0 512 0 480 0C448 0 416 0 384 0C352 0 320 0 288 0C256 0 224 0 192 0C160 0 128 0 96 0C64 0 32 0 16 0L0 0Z" fill="#383047">
</path>
<path d="M0 31L16 32.7C32 34.3 64 37.7 96 37.3C128 37 160 33 192 33.2C224 33.3 256 37.7 288 39.5C320 41.3 352 40.7 384 39.5C416 38.3 448 36.7 480 38.2C512 39.7 544 44.3 576 43.5C608 42.7 640 36.3 672 34.3C704 32.3 736 34.7 768 36.8C800 39 832 41 864 41.3C896 41.7 928 40.3 944 39.7L960 39L960 0L944 0C928 0 896 0 864 0C832 0 800 0 768 0C736 0 704 0 672 0C640 0 608 0 576 0C544 0 512 0 480 0C448 0 416 0 384 0C352 0 320 0 288 0C256 0 224 0 192 0C160 0 128 0 96 0C64 0 32 0 16 0L0 0Z" fill="#22223b">
</path>
</svg>
