<?xml version="1.0" encoding="utf-8"?>
<!-- Generator: Adobe Illustrator 23.0.3, SVG Export Plug-In . SVG Version: 6.00 Build 0)  -->
<svg version="1.1" id="Calque_1" xmlns="http://www.w3.org/2000/svg" xmlns:xlink="http://www.w3.org/1999/xlink" x="0px" y="0px"
	 viewBox="0 0 1150 1071" style="enable-background:new 0 0 1150 1071;" xml:space="preserve">
<style type="text/css">
	.st0{fill-rule:evenodd;clip-rule:evenodd;fill:#ff9f1cff;}
</style>
<path class="st0" d="M1071.2,0.6c30.5,29.9,57.4,63.6,78.8,100c0,0,0,213.8,0,289.9c0,89.4-145.2,127-169.1,214.5
	c-39.3,143.7,118,338.1,8.2,436.7c-105.7,94.9-263.8-73.8-404.4-80.9c-129.2-6.5-269.5,115.8-376.3,41.4
	c-106.3-74.1-62.5-245-97.3-371.5C78.4,511.5-35.3,397.7,10.9,283.4c46.6-115.1,210.4-108.3,312.2-177.1
	c44.2-29.8,78.2-68.6,114.2-105.7"/>
<line class="st0" x1="1150" y1="390.9" x2="1150" y2="101.1"/>
</svg>
